<?xml version="1.0" standalone="no"?>
<svg xmlns="http://www.w3.org/2000/svg" viewBox="0 0 70 65" width="70" height="65"><g fill="#0466b2" color="#0466b2" transform="translate(17.204 0) scale(0.3645834) "><svg width="96.0" height="96.0" x="0.0" y="0.0" viewBox="0 0 96 96"><path d="M25 29.004h-20c-1.104 0-2-0.9-2-2v-20c0-1.104 0.896-2 2-2h20c1.104 0 2 0.896 2 2v20c0 1.1-0.896 2-2 2zM7 25.004h16v-16h-16v16z" fill="currentColor"></path><path d="M15 23.004c-0.148 0-0.3-0.016-0.444-0.056-0.588-0.132-1.084-0.528-1.352-1.068l-3.832-7.832c-0.484-0.992-0.076-2.188 0.916-2.676 0.996-0.488 2.188-0.072 2.676 0.916l2.744 5.608 18.392-14.472c0.868-0.68 2.128-0.532 2.808 0.336 0.68 0.872 0.532 2.124-0.336 2.808l-20.336 16c-0.356 0.288-0.792 0.436-1.236 0.436z" fill="currentColor"></path><path d="M25 61.004h-20c-1.104 0-2-0.9-2-2v-20c0-1.104 0.896-2 2-2h20c1.104 0 2 0.896 2 2v20c0 1.1-0.896 2-2 2zM7 57.004h16v-16h-16v16z" fill="currentColor"></path><path d="M15 55.004c-0.148 0-0.3-0.016-0.444-0.056-0.588-0.132-1.084-0.528-1.352-1.072l-3.832-7.832c-0.484-0.992-0.076-2.188 0.916-2.676 0.996-0.488 2.188-0.076 2.676 0.916l2.744 5.608 18.392-14.472c0.868-0.68 2.128-0.528 2.808 0.336 0.68 0.872 0.532 2.124-0.336 2.808l-20.336 16c-0.356 0.292-0.792 0.44-1.236 0.44z" fill="currentColor"></path><path d="M25 93.004h-20c-1.104 0-2-0.9-2-2v-20c0-1.104 0.896-2 2-2h20c1.104 0 2 0.896 2 2v20c0 1.1-0.896 2-2 2zM7 89.004h16v-16h-16v16z" fill="currentColor"></path><path d="M91 77.004h-44c-1.104 0-2-0.9-2-2 0-1.104 0.896-2 2-2h44c1.1 0 2 0.896 2 2 0 1.1-0.9 2-2 2z" fill="currentColor"></path><path d="M91 89.004h-44c-1.104 0-2-0.9-2-2 0-1.104 0.896-2 2-2h44c1.1 0 2 0.896 2 2 0 1.1-0.9 2-2 2z" fill="currentColor"></path><path d="M91 45.004h-44c-1.104 0-2-0.9-2-2 0-1.104 0.896-2 2-2h44c1.1 0 2 0.896 2 2 0 1.1-0.9 2-2 2z" fill="currentColor"></path><path d="M91 57.004h-44c-1.104 0-2-0.9-2-2 0-1.104 0.896-2 2-2h44c1.1 0 2 0.896 2 2 0 1.1-0.9 2-2 2z" fill="currentColor"></path><path d="M91 13.004h-44c-1.104 0-2-0.9-2-2 0-1.104 0.896-2 2-2h44c1.1 0 2 0.896 2 2 0 1.1-0.9 2-2 2z" fill="currentColor"></path><path d="M91 25.004h-44c-1.104 0-2-0.9-2-2 0-1.104 0.896-2 2-2h44c1.1 0 2 0.896 2 2 0 1.1-0.9 2-2 2z" fill="currentColor"></path></svg></g><line x1="18.254" y1="41" x2="51.153999999999996" y2="41" stroke="#0466b2" stroke-linecap="round"></line><path fill="#0466b2" fill-rule="nonzero" d="M6.98 17.11Q6.53 17.11 6.22 16.80Q5.90 16.49 5.90 16.03L5.90 16.03L5.90 2.28L1.01 2.28Q0.58 2.28 0.29 1.99Q0 1.70 0 1.27L0 1.27Q0 0.84 0.29 0.54Q0.58 0.24 1.01 0.24L1.01 0.24L12.96 0.24Q13.39 0.24 13.69 0.54Q13.99 0.84 13.99 1.27L13.99 1.27Q13.99 1.70 13.69 1.99Q13.39 2.28 12.96 2.28L12.96 2.28L8.09 2.28L8.09 16.03Q8.09 16.49 7.76 16.80Q7.44 17.11 6.98 17.11L6.98 17.11ZM23.47 17.23Q20.95 17.23 19.06 16.13Q17.16 15.02 16.13 13.08Q15.10 11.14 15.05 8.62L15.05 8.62Q15.10 6.10 16.13 4.15Q17.16 2.21 19.06 1.10Q20.95 0 23.47 0L23.47 0Q25.99 0 27.88 1.10Q29.76 2.21 30.80 4.16Q31.85 6.12 31.90 8.62L31.90 8.62Q31.85 11.11 30.80 13.07Q29.76 15.02 27.88 16.13Q25.99 17.23 23.47 17.23L23.47 17.23ZM23.47 15.19Q25.39 15.19 26.81 14.33Q28.22 13.46 28.97 11.98Q29.71 10.49 29.71 8.62L29.71 8.62Q29.71 6.74 28.97 5.26Q28.22 3.77 26.81 2.90Q25.39 2.04 23.47 2.04L23.47 2.04Q21.53 2.04 20.12 2.90Q18.72 3.77 17.98 5.26Q17.23 6.74 17.23 8.62L17.23 8.62Q17.23 10.49 17.98 11.98Q18.72 13.46 20.12 14.33Q21.53 15.19 23.47 15.19L23.47 15.19ZM36.62 16.99Q36.17 16.99 35.86 16.68Q35.54 16.37 35.54 15.91L35.54 15.91L35.54 1.34Q35.54 0.89 35.86 0.56Q36.17 0.24 36.62 0.24L36.62 0.24L41.45 0.24Q44.18 0.24 46.09 1.45Q48 2.66 48.96 4.58Q49.92 6.50 49.92 8.62L49.92 8.62Q49.92 10.73 48.96 12.65Q48 14.57 46.09 15.78Q44.18 16.99 41.45 16.99L41.45 16.99L36.62 16.99ZM37.73 14.95L41.18 14.95Q43.15 14.95 44.64 14.15Q46.13 13.34 46.94 11.92Q47.76 10.49 47.76 8.62L47.76 8.62Q47.76 6.74 46.94 5.32Q46.13 3.89 44.64 3.08Q43.15 2.28 41.18 2.28L41.18 2.28L37.73 2.28L37.73 14.95ZM60.98 17.23Q58.46 17.23 56.57 16.13Q54.67 15.02 53.64 13.08Q52.61 11.14 52.56 8.62L52.56 8.62Q52.61 6.10 53.64 4.15Q54.67 2.21 56.57 1.10Q58.46 0 60.98 0L60.98 0Q63.50 0 65.39 1.10Q67.27 2.21 68.32 4.16Q69.36 6.12 69.41 8.62L69.41 8.62Q69.36 11.11 68.32 13.07Q67.27 15.02 65.39 16.13Q63.50 17.23 60.98 17.23L60.98 17.23ZM60.98 15.19Q62.90 15.19 64.32 14.33Q65.74 13.46 66.48 11.98Q67.22 10.49 67.22 8.62L67.22 8.62Q67.22 6.74 66.48 5.26Q65.74 3.77 64.32 2.90Q62.90 2.04 60.98 2.04L60.98 2.04Q59.04 2.04 57.64 2.90Q56.23 3.77 55.49 5.26Q54.74 6.74 54.74 8.62L54.74 8.62Q54.74 10.49 55.49 11.98Q56.23 13.46 57.64 14.33Q59.04 15.19 60.98 15.19L60.98 15.19Z" transform="translate(0, 47)"></path></svg>